<mxfile host="app.diagrams.net" modified="2023-05-29T09:46:40.232Z" agent="Mozilla/5.0 (Macintosh; Intel Mac OS X 10_15_7) AppleWebKit/537.36 (KHTML, like Gecko) Chrome/112.0.0.0 Safari/537.36" etag="3OjCAnLNzMf4IvI5uOuP" version="21.3.5" type="github">
  <diagram name="第 1 页" id="2hjc1kzMZBNQ4w3iPrLd">
    <mxGraphModel dx="2074" dy="1080" grid="1" gridSize="10" guides="1" tooltips="1" connect="1" arrows="1" fold="1" page="1" pageScale="1" pageWidth="827" pageHeight="1169" math="0" shadow="0">
      <root>
        <mxCell id="0" />
        <mxCell id="1" parent="0" />
        <mxCell id="x064D7YEaicIlGu5Xjts-1" value="" style="html=1;points=[];perimeter=orthogonalPerimeter;outlineConnect=0;targetShapes=umlLifeline;portConstraint=eastwest;newEdgeStyle={&quot;edgeStyle&quot;:&quot;elbowEdgeStyle&quot;,&quot;elbow&quot;:&quot;vertical&quot;,&quot;curved&quot;:0,&quot;rounded&quot;:0};" vertex="1" parent="1">
          <mxGeometry x="174" y="330" width="10" height="430" as="geometry" />
        </mxCell>
        <mxCell id="x064D7YEaicIlGu5Xjts-4" value="" style="html=1;points=[];perimeter=orthogonalPerimeter;outlineConnect=0;targetShapes=umlLifeline;portConstraint=eastwest;newEdgeStyle={&quot;edgeStyle&quot;:&quot;elbowEdgeStyle&quot;,&quot;elbow&quot;:&quot;vertical&quot;,&quot;curved&quot;:0,&quot;rounded&quot;:0};" vertex="1" parent="1">
          <mxGeometry x="404" y="330" width="10" height="430" as="geometry" />
        </mxCell>
        <mxCell id="x064D7YEaicIlGu5Xjts-5" value="" style="html=1;verticalAlign=bottom;endArrow=block;edgeStyle=elbowEdgeStyle;elbow=vertical;curved=0;rounded=0;" edge="1" target="x064D7YEaicIlGu5Xjts-4" parent="1" source="x064D7YEaicIlGu5Xjts-1">
          <mxGeometry relative="1" as="geometry">
            <mxPoint x="334" y="360" as="sourcePoint" />
            <Array as="points">
              <mxPoint x="300" y="360" />
            </Array>
          </mxGeometry>
        </mxCell>
        <mxCell id="x064D7YEaicIlGu5Xjts-8" value="" style="html=1;points=[];perimeter=orthogonalPerimeter;outlineConnect=0;targetShapes=umlLifeline;portConstraint=eastwest;newEdgeStyle={&quot;edgeStyle&quot;:&quot;elbowEdgeStyle&quot;,&quot;elbow&quot;:&quot;vertical&quot;,&quot;curved&quot;:0,&quot;rounded&quot;:0};" vertex="1" parent="1">
          <mxGeometry x="610" y="330" width="10" height="430" as="geometry" />
        </mxCell>
        <mxCell id="x064D7YEaicIlGu5Xjts-9" value="" style="html=1;verticalAlign=bottom;endArrow=block;edgeStyle=elbowEdgeStyle;elbow=vertical;curved=0;rounded=0;" edge="1" target="x064D7YEaicIlGu5Xjts-8" parent="1">
          <mxGeometry relative="1" as="geometry">
            <mxPoint x="414" y="360" as="sourcePoint" />
          </mxGeometry>
        </mxCell>
        <mxCell id="x064D7YEaicIlGu5Xjts-15" value="init" style="html=1;verticalAlign=bottom;startArrow=oval;startFill=1;endArrow=block;startSize=8;edgeStyle=elbowEdgeStyle;elbow=vertical;curved=0;rounded=0;" edge="1" parent="1">
          <mxGeometry width="60" relative="1" as="geometry">
            <mxPoint x="110" y="360" as="sourcePoint" />
            <mxPoint x="170" y="360" as="targetPoint" />
          </mxGeometry>
        </mxCell>
        <mxCell id="x064D7YEaicIlGu5Xjts-19" value="mapbiz::MapBizManager::Create" style="text;html=1;align=center;verticalAlign=middle;resizable=0;points=[];autosize=1;strokeColor=none;fillColor=none;" vertex="1" parent="1">
          <mxGeometry x="190" y="330" width="200" height="30" as="geometry" />
        </mxCell>
        <mxCell id="x064D7YEaicIlGu5Xjts-20" value="OverLook" style="text;html=1;align=center;verticalAlign=middle;resizable=0;points=[];autosize=1;strokeColor=none;fillColor=none;" vertex="1" parent="1">
          <mxGeometry x="240" y="360" width="80" height="30" as="geometry" />
        </mxCell>
        <mxCell id="x064D7YEaicIlGu5Xjts-21" value="" style="html=1;verticalAlign=bottom;endArrow=block;edgeStyle=elbowEdgeStyle;elbow=vertical;curved=0;rounded=0;" edge="1" parent="1">
          <mxGeometry relative="1" as="geometry">
            <mxPoint x="184" y="390" as="sourcePoint" />
            <mxPoint x="404" y="390" as="targetPoint" />
            <Array as="points">
              <mxPoint x="300" y="390" />
            </Array>
          </mxGeometry>
        </mxCell>
        <mxCell id="x064D7YEaicIlGu5Xjts-24" value="RouteRequest" style="html=1;align=left;spacingLeft=2;endArrow=block;rounded=0;edgeStyle=orthogonalEdgeStyle;curved=0;rounded=0;" edge="1" parent="1">
          <mxGeometry relative="1" as="geometry">
            <mxPoint x="184" y="410" as="sourcePoint" />
            <Array as="points">
              <mxPoint x="214" y="440" />
            </Array>
            <mxPoint x="189" y="440" as="targetPoint" />
          </mxGeometry>
        </mxCell>
        <mxCell id="x064D7YEaicIlGu5Xjts-25" value="" style="html=1;verticalAlign=bottom;endArrow=block;edgeStyle=elbowEdgeStyle;elbow=vertical;curved=0;rounded=0;" edge="1" parent="1">
          <mxGeometry relative="1" as="geometry">
            <mxPoint x="184" y="520" as="sourcePoint" />
            <mxPoint x="404" y="520" as="targetPoint" />
            <Array as="points">
              <mxPoint x="300" y="520" />
            </Array>
          </mxGeometry>
        </mxCell>
        <mxCell id="x064D7YEaicIlGu5Xjts-26" value="ClearRouteData" style="text;html=1;align=center;verticalAlign=middle;resizable=0;points=[];autosize=1;strokeColor=none;fillColor=none;" vertex="1" parent="1">
          <mxGeometry x="235" y="490" width="110" height="30" as="geometry" />
        </mxCell>
        <mxCell id="x064D7YEaicIlGu5Xjts-27" value="" style="html=1;verticalAlign=bottom;endArrow=block;edgeStyle=elbowEdgeStyle;elbow=vertical;curved=0;rounded=0;" edge="1" parent="1">
          <mxGeometry relative="1" as="geometry">
            <mxPoint x="184" y="550" as="sourcePoint" />
            <mxPoint x="404" y="550" as="targetPoint" />
            <Array as="points">
              <mxPoint x="300" y="550" />
            </Array>
          </mxGeometry>
        </mxCell>
        <mxCell id="x064D7YEaicIlGu5Xjts-28" value="AddRouteData" style="text;html=1;align=center;verticalAlign=middle;resizable=0;points=[];autosize=1;strokeColor=none;fillColor=none;" vertex="1" parent="1">
          <mxGeometry x="240" y="520" width="100" height="30" as="geometry" />
        </mxCell>
        <mxCell id="x064D7YEaicIlGu5Xjts-29" value="" style="html=1;verticalAlign=bottom;endArrow=block;edgeStyle=elbowEdgeStyle;elbow=vertical;curved=0;rounded=0;" edge="1" parent="1">
          <mxGeometry relative="1" as="geometry">
            <mxPoint x="184" y="580" as="sourcePoint" />
            <mxPoint x="404" y="580" as="targetPoint" />
            <Array as="points">
              <mxPoint x="300" y="580" />
            </Array>
          </mxGeometry>
        </mxCell>
        <mxCell id="x064D7YEaicIlGu5Xjts-30" value="setSelectedRouteId" style="text;html=1;align=center;verticalAlign=middle;resizable=0;points=[];autosize=1;strokeColor=none;fillColor=none;" vertex="1" parent="1">
          <mxGeometry x="225" y="550" width="130" height="30" as="geometry" />
        </mxCell>
        <mxCell id="x064D7YEaicIlGu5Xjts-31" value="" style="html=1;verticalAlign=bottom;endArrow=block;edgeStyle=elbowEdgeStyle;elbow=vertical;curved=0;rounded=0;" edge="1" parent="1">
          <mxGeometry relative="1" as="geometry">
            <mxPoint x="184" y="610" as="sourcePoint" />
            <mxPoint x="404" y="610" as="targetPoint" />
            <Array as="points">
              <mxPoint x="300" y="610" />
            </Array>
          </mxGeometry>
        </mxCell>
        <mxCell id="x064D7YEaicIlGu5Xjts-32" value="OverLook" style="text;html=1;align=center;verticalAlign=middle;resizable=0;points=[];autosize=1;strokeColor=none;fillColor=none;" vertex="1" parent="1">
          <mxGeometry x="250" y="580" width="80" height="30" as="geometry" />
        </mxCell>
        <mxCell id="x064D7YEaicIlGu5Xjts-36" value="" style="html=1;verticalAlign=bottom;endArrow=block;edgeStyle=elbowEdgeStyle;elbow=vertical;curved=0;rounded=0;" edge="1" parent="1" target="x064D7YEaicIlGu5Xjts-8">
          <mxGeometry relative="1" as="geometry">
            <mxPoint x="184" y="490" as="sourcePoint" />
            <mxPoint x="404" y="490" as="targetPoint" />
            <Array as="points">
              <mxPoint x="300" y="490" />
            </Array>
          </mxGeometry>
        </mxCell>
        <mxCell id="x064D7YEaicIlGu5Xjts-37" value="MapMarkerIconCreate" style="text;html=1;align=center;verticalAlign=middle;resizable=0;points=[];autosize=1;strokeColor=none;fillColor=none;" vertex="1" parent="1">
          <mxGeometry x="445" y="460" width="140" height="30" as="geometry" />
        </mxCell>
        <mxCell id="x064D7YEaicIlGu5Xjts-38" value="Client" style="shape=umlLifeline;perimeter=lifelinePerimeter;whiteSpace=wrap;html=1;container=1;dropTarget=0;collapsible=0;recursiveResize=0;outlineConnect=0;portConstraint=eastwest;newEdgeStyle={&quot;edgeStyle&quot;:&quot;elbowEdgeStyle&quot;,&quot;elbow&quot;:&quot;vertical&quot;,&quot;curved&quot;:0,&quot;rounded&quot;:0};" vertex="1" parent="1">
          <mxGeometry x="129" y="250" width="100" height="80" as="geometry" />
        </mxCell>
        <mxCell id="x064D7YEaicIlGu5Xjts-39" value="Mapbiz" style="shape=umlLifeline;perimeter=lifelinePerimeter;whiteSpace=wrap;html=1;container=1;dropTarget=0;collapsible=0;recursiveResize=0;outlineConnect=0;portConstraint=eastwest;newEdgeStyle={&quot;edgeStyle&quot;:&quot;elbowEdgeStyle&quot;,&quot;elbow&quot;:&quot;vertical&quot;,&quot;curved&quot;:0,&quot;rounded&quot;:0};" vertex="1" parent="1">
          <mxGeometry x="359" y="250" width="100" height="80" as="geometry" />
        </mxCell>
        <mxCell id="x064D7YEaicIlGu5Xjts-40" value="Map" style="shape=umlLifeline;perimeter=lifelinePerimeter;whiteSpace=wrap;html=1;container=1;dropTarget=0;collapsible=0;recursiveResize=0;outlineConnect=0;portConstraint=eastwest;newEdgeStyle={&quot;edgeStyle&quot;:&quot;elbowEdgeStyle&quot;,&quot;elbow&quot;:&quot;vertical&quot;,&quot;curved&quot;:0,&quot;rounded&quot;:0};" vertex="1" parent="1">
          <mxGeometry x="565" y="250" width="100" height="80" as="geometry" />
        </mxCell>
      </root>
    </mxGraphModel>
  </diagram>
</mxfile>
